<svg width="989" height="131" viewBox="0 0 989 131" fill="none" xmlns="http://www.w3.org/2000/svg">
<g clip-path="url(#clip0_202_6185)">
<path d="M121.15 60.1783L91.69 22.8783L62.45 59.8983V6.58828H0V69.0383H51.7C38.59 72.8583 29 84.9583 29 99.3083C29 116.718 43.12 130.838 60.53 130.838C76.3 130.838 89.37 119.258 91.69 104.128C94.01 119.248 107.08 130.838 122.85 130.838C140.26 130.838 154.38 116.718 154.38 99.3083C154.38 84.9583 144.79 72.8583 131.68 69.0383H183.6V6.58828H121.15V60.1783ZM121.15 67.8183C106.15 68.6183 93.93 79.9083 91.69 94.4783C89.46 79.9783 77.35 68.7283 62.45 67.8383V67.7883H121.15V67.8183ZM818.2 32.2283C827.1 32.2283 834.31 25.0083 834.31 16.1083C834.31 7.20828 827.09 -0.0117188 818.2 -0.0117188C809.31 -0.0117188 802.08 7.20828 802.08 16.1083C802.08 25.0083 809.3 32.2283 818.2 32.2283ZM946.36 37.8283C920.54 37.8283 901.87 57.3783 901.87 84.0683H901.89C901.89 111.988 921.96 130.838 951.97 130.838C963.13 130.838 974.65 127.528 981.8 122.638L984.23 104.318C976.56 110.258 967.66 112.868 959.11 112.868C944.27 112.868 934.17 104.148 932.24 89.1283H988.94C990.15 57.3683 972.18 37.8183 946.36 37.8183V37.8283ZM932.22 74.6483C933.45 62.0683 938.51 54.7483 946.71 54.7483C954.21 54.7483 959.44 61.0383 960.85 74.6483H932.23H932.22ZM380.25 6.59828H344.66C349.88 12.7083 350.05 19.6783 347.44 30.6883L331.37 87.2383L304.66 6.44828H282.15L255.24 87.2783L239.37 30.6883C236.76 19.6883 236.76 12.0183 241.3 6.59828H197.16C201.19 13.2383 204.15 20.0383 208.34 35.5683L236.61 128.918H262.78L288.65 51.8283L314.8 128.918H340.79L369.24 35.5683C373.44 20.0283 376.23 13.2383 380.24 6.59828H380.25ZM411 37.6583C384.48 37.6583 363.55 56.6783 363.55 84.4283C363.55 112.178 384.13 130.848 410.83 130.848C437.53 130.848 458.28 111.648 458.28 84.0783C458.28 56.5083 437.52 37.6583 411 37.6583ZM411 114.088C401.58 114.088 394.78 105.018 394.78 84.6083C394.78 64.1983 401.4 54.9483 410.82 54.9483C420.24 54.9483 427.04 64.1983 427.04 84.6083C427.04 105.018 420.42 114.088 411 114.088ZM833.65 38.7083L796.31 43.7683C802.23 51.0883 803.28 54.7483 803.28 65.3983H803.3V128.738H840.12C835.06 121.938 833.66 118.108 833.66 106.928V38.7083H833.65ZM787.94 38.7283L750.59 43.7883C756.69 51.1083 757.56 54.7683 757.56 65.4183V104.318C754.07 108.858 749.54 112.168 744.13 112.168C737.67 112.168 732.95 107.628 732.95 98.9083V38.7083L695.78 43.7683C701.54 51.0883 702.59 54.7483 702.59 65.3983V103.448C702.59 120.548 712.71 130.848 728.76 130.848C741.16 130.848 751.44 123.878 757.56 113.398V128.758H794.73C789.16 121.768 787.93 115.668 787.93 105.718V38.7283H787.94ZM652.46 62.2683C652.46 57.7283 655.95 54.4183 662.41 54.4183C670.78 54.4183 677.77 58.0783 688.07 66.6283V38.5283C680.92 43.5883 670.62 37.9983 657.19 37.9983C637.99 37.9983 624.21 48.9983 624.21 66.4483C624.21 98.0283 666.44 91.9183 666.44 106.578C666.44 111.288 661.9 114.948 655.27 114.948C644.97 114.948 636.95 109.708 626.82 100.808V128.728H659.79C679.15 128.728 694.86 118.608 694.86 100.808C694.86 70.4483 652.47 76.9183 652.47 62.2583L652.46 62.2683ZM886 56.3483H905.72V39.7783H886V16.0383L855.82 22.6783V39.7783H841.51V56.3483H855.82V106.938C855.82 118.098 854.59 121.948 849.36 128.748H892.47C887.41 121.948 886.01 118.118 886.01 106.938V56.3483H886ZM562.46 1.90828L525.29 6.61828C531.21 13.7683 532.26 17.5983 532.26 28.0783V106.938H532.28C532.28 118.098 531.05 121.948 525.82 128.748H568.4C563.51 122.128 562.46 118.118 562.46 107.468V1.90828ZM591.04 77.4983L606.61 60.0183C614.49 51.2783 621.24 44.4783 626.84 39.7683H590.37C593.4 46.2283 591.98 51.1183 584.8 59.8383L563.15 84.9583V84.9783L580.25 110.798C585.84 119.518 586.36 123.708 584.26 128.768H626.84C622.13 123.358 617.77 117.238 609.74 105.208L591.04 77.4983ZM495.64 63.6483V38.7083L458.29 43.7683C464.21 51.0883 465.26 54.7483 465.26 65.3983V106.928H465.28C465.28 118.088 464.05 121.938 458.82 128.738H502.96C497.21 121.938 495.64 118.108 495.64 106.928V75.3483C501.05 66.4483 507.48 61.9083 516.73 61.9083C521.55 61.9083 524.88 63.7983 524.88 63.7983V38.9983C524.88 38.9983 522.94 37.9983 519.55 37.9983C509.6 37.9983 500.53 45.8483 495.64 63.6383V63.6483Z" fill="white"/>
</g>
<defs>
<clipPath id="clip0_202_6185">
<rect width="989" height="131" fill="white"/>
</clipPath>
</defs>
</svg>
