<svg width="212" height="29" viewBox="0 0 212 29" fill="none" xmlns="http://www.w3.org/2000/svg">
<g clip-path="url(#clip0_202_6531)">
<path d="M25.9656 12.9003L19.6506 4.9047L13.3828 12.8402V1.41281H-0.00391019V14.7995H11.0784C8.26817 15.6183 6.21247 18.2121 6.21247 21.2881C6.21247 25.0201 9.23921 28.0468 12.9712 28.0468C16.3516 28.0468 19.1533 25.5645 19.6506 22.3213C20.1479 25.5624 22.9496 28.0468 26.33 28.0468C30.062 28.0468 33.0887 25.0201 33.0887 21.2881C33.0887 18.2121 31.033 15.6183 28.2228 14.7995H39.3522V1.41281H25.9656V12.9003ZM25.9656 14.538C22.7502 14.7094 20.1307 17.1295 19.6506 20.2527C19.1726 17.1445 16.5767 14.733 13.3828 14.5422V14.5315H25.9656V14.538ZM88.0973 8.07291C82.4125 8.07291 77.926 12.15 77.926 18.0984C77.926 24.0469 82.3374 28.0489 88.0608 28.0489C93.7842 28.0489 98.2321 23.9333 98.2321 18.0234C98.2321 12.1136 93.782 8.07291 88.0973 8.07291ZM88.0973 24.4563C86.078 24.4563 84.6204 22.5121 84.6204 18.137C84.6204 13.762 86.0394 11.7792 88.0587 11.7792C90.0779 11.7792 91.5356 13.762 91.5356 18.137C91.5356 22.5121 90.1165 24.4563 88.0973 24.4563ZM81.5057 1.41495H73.8767C74.9957 2.72468 75.0321 4.21876 74.4727 6.57884L71.0279 18.7008L65.3024 1.3828H60.4772L54.7088 18.7094L51.307 6.57884C50.7475 4.2209 50.7475 2.57677 51.7207 1.41495H42.2589C43.1228 2.83829 43.7573 4.29592 44.6554 7.6249L50.7154 27.6352H56.3251L61.8705 11.1104L67.476 27.6352H73.0472L79.1457 7.6249C80.046 4.29378 80.644 2.83829 81.5036 1.41495H81.5057ZM175.384 6.90895C177.292 6.90895 178.837 5.36128 178.837 3.4535C178.837 1.54571 177.29 -0.0019551 175.384 -0.0019551C173.478 -0.0019551 171.928 1.54571 171.928 3.4535C171.928 5.36128 173.476 6.90895 175.384 6.90895ZM106.241 13.6441V8.29799L98.2342 9.38264C99.5032 10.9517 99.7283 11.7363 99.7283 14.0192V22.9215H99.7326C99.7326 25.3137 99.469 26.139 98.3479 27.5966H107.81C106.577 26.139 106.241 25.318 106.241 22.9215V16.1521C107.4 14.2443 108.779 13.2711 110.761 13.2711C111.795 13.2711 112.508 13.6762 112.508 13.6762V8.36015C112.508 8.36015 112.092 8.14579 111.366 8.14579C109.233 8.14579 107.289 9.82851 106.241 13.6419V13.6441ZM178.696 8.29799L170.692 9.38264C171.961 10.9517 172.186 11.7363 172.186 14.0192H172.19V27.5966H180.083C178.998 26.139 178.698 25.318 178.698 22.9215V8.29799H178.696ZM189.917 12.0793H194.144V8.52735H189.917V3.43849L183.448 4.86183V8.52735H180.381V12.0793H183.448V22.9236C183.448 25.3159 183.184 26.1412 182.063 27.5988H191.304C190.22 26.1412 189.919 25.3202 189.919 22.9236V12.0793H189.917ZM202.856 8.10935C197.321 8.10935 193.319 12.3001 193.319 18.0213H193.323C193.323 24.0061 197.626 28.0468 204.059 28.0468C206.451 28.0468 208.92 27.3373 210.453 26.2891L210.974 22.362C209.33 23.6353 207.422 24.1948 205.589 24.1948C202.408 24.1948 200.243 22.3256 199.829 19.1059H211.983C212.243 12.2979 208.391 8.10721 202.856 8.10721V8.10935ZM199.825 16.002C200.089 13.3054 201.173 11.7363 202.931 11.7363C204.539 11.7363 205.66 13.0846 205.962 16.002H199.827H199.825ZM120.564 0.409612L112.596 1.41924C113.865 2.9519 114.09 3.77289 114.09 6.01936V22.9236H114.095C114.095 25.3159 113.831 26.1412 112.71 27.5988H121.837C120.789 26.1797 120.564 25.3202 120.564 23.0373V0.409612ZM126.69 16.6129L130.028 12.866C131.717 10.9925 133.164 9.53484 134.364 8.52521H126.547C127.196 9.90996 126.892 10.9582 125.353 12.8274L120.712 18.2121V18.2163L124.377 23.7511C125.576 25.6203 125.687 26.5184 125.237 27.6031H134.364C133.355 26.4434 132.42 25.1315 130.699 22.5528L126.69 16.6129ZM168.897 8.30228L160.891 9.38693C162.199 10.956 162.385 11.7406 162.385 14.0235V22.362C161.637 23.3352 160.666 24.0447 159.506 24.0447C158.122 24.0447 157.11 23.0715 157.11 21.2023V8.29799L149.142 9.38264C150.377 10.9517 150.602 11.7363 150.602 14.0192V22.1755C150.602 25.8411 152.771 28.0489 156.212 28.0489C158.87 28.0489 161.073 26.5549 162.385 24.3084V27.6009H170.353C169.159 26.1026 168.895 24.795 168.895 22.6621V8.30228H168.897ZM139.856 13.3483C139.856 12.3751 140.604 11.6656 141.989 11.6656C143.783 11.6656 145.282 12.4501 147.489 14.2829V8.25941C145.957 9.34406 143.749 8.14579 140.87 8.14579C136.754 8.14579 133.801 10.5037 133.801 14.2443C133.801 21.0137 142.853 19.704 142.853 22.8465C142.853 23.8561 141.88 24.6406 140.458 24.6406C138.251 24.6406 136.531 23.5174 134.36 21.6096V27.5945H141.427C145.577 27.5945 148.945 25.4252 148.945 21.6096C148.945 15.1017 139.858 16.4886 139.858 13.3461L139.856 13.3483Z" fill="black"/>
</g>
<defs>
<clipPath id="clip0_202_6531">
<rect width="105.893" height="14.0263" fill="white" transform="scale(2.00202)"/>
</clipPath>
</defs>
</svg>
